<svg version="1.1" id="Layer_1" xmlns="http://www.w3.org/2000/svg" xmlns:xlink="http://www.w3.org/1999/xlink" x="0px" y="0px"
	 width="100%" viewBox="0 0 4500 4500" enable-background="new 0 0 4500 4500" xml:space="preserve">
<path fill="#FFFFFF" opacity="1.000000" stroke="none" 
	d="
M2964.000000,4504.000000 
	C1976.000000,4504.000000 990.000000,4504.000000 4.000000,4504.000000 
	C4.000000,3004.000000 4.000000,1504.000000 4.000000,4.000001 
	C1504.000000,4.000000 3004.000000,4.000000 4504.000000,4.000000 
	C4504.000000,1504.000000 4504.000000,3004.000000 4504.000000,4504.000000 
	C3991.333252,4504.000000 3478.666748,4504.000000 2964.000000,4504.000000 
M2179.410156,2186.202393 
	C2148.844238,2091.087402 2118.272461,1995.974243 2087.713623,1900.857056 
	C2007.442505,1651.008301 1927.182739,1401.156006 1846.907104,1151.308838 
	C1808.805908,1032.723877 1770.696045,914.141785 1732.520630,795.580750 
	C1730.320435,788.747620 1729.410522,781.280945 1724.436890,775.678955 
	C1722.080688,775.193726 1720.151611,774.452332 1718.221436,774.449280 
	C1668.228149,774.369934 1618.234619,774.319885 1568.241699,774.473022 
	C1565.346924,774.481873 1562.457642,776.247803 1559.223022,777.308350 
	C1560.586548,782.339600 1561.490723,786.214905 1562.685913,789.998230 
	C1570.711304,815.401855 1578.788940,840.789062 1586.866943,866.175964 
	C1670.880981,1130.209229 1754.909058,1394.238037 1838.910034,1658.275391 
	C1883.738770,1799.183594 1928.496826,1940.114136 1973.334473,2081.019531 
	C2010.092285,2196.533691 2046.901245,2312.031494 2083.766846,2427.511230 
	C2085.944336,2434.332520 2087.047607,2441.708740 2092.410400,2448.237305 
	C2378.916260,2448.237305 2665.487305,2448.241211 2952.058105,2448.159180 
	C2953.863525,2448.158691 2955.668213,2446.969482 2957.686279,2446.260742 
	C2958.257812,2444.196289 2959.215332,2442.343262 2959.219238,2440.487793 
	C2959.301758,2400.493896 2959.322998,2360.499756 2959.162842,2320.506348 
	C2959.153320,2318.123779 2957.528564,2315.747314 2956.368408,2312.585449 
	C2948.611816,2312.585449 2941.317627,2312.585449 2934.023438,2312.585449 
	C2826.036377,2312.585449 2718.049316,2312.584961 2610.062256,2312.585449 
	C2487.410156,2312.585938 2364.758301,2312.619141 2242.106201,2312.507568 
	C2234.942871,2312.501221 2227.500488,2314.095215 2219.120850,2309.942139 
	C2206.347412,2270.305176 2193.288818,2229.782715 2179.410156,2186.202393 
M2536.177246,1746.694824 
	C2548.044678,1711.354492 2559.945801,1676.025269 2571.774170,1640.671753 
	C2638.727051,1440.552368 2705.671387,1240.429932 2772.600098,1040.302368 
	C2800.688477,956.313538 2828.750732,872.315979 2856.739258,788.293823 
	C2858.110107,784.178833 2861.738525,779.975708 2857.605713,775.410278 
	C2832.481201,773.194519 2698.973389,773.859924 2683.209717,776.441284 
	C2681.314209,781.471802 2679.032471,786.930481 2677.180176,792.531250 
	C2585.404541,1070.025146 2493.670654,1347.532715 2401.918945,1625.034424 
	C2378.097900,1697.080444 2354.315430,1769.139526 2330.277100,1841.113159 
	C2327.439941,1849.608765 2326.293457,1857.488159 2329.062012,1866.328491 
	C2354.331787,1947.011719 2379.303711,2027.788086 2404.469482,2108.504150 
	C2405.664551,2112.337402 2407.862549,2115.858398 2410.697754,2121.863770 
	C2452.880615,1995.913574 2494.103760,1872.828735 2536.177246,1746.694824 
M2939.615479,2986.907959 
	C2952.603271,2980.131348 2959.544189,2968.875732 2960.143799,2954.796387 
	C2961.020264,2934.212891 2961.104004,2913.530762 2960.146729,2892.955078 
	C2959.448486,2877.939941 2951.063477,2866.836914 2937.386230,2860.139160 
	C2933.295166,2858.135498 2929.100342,2856.343994 2923.984619,2854.014404 
	C2927.435059,2852.366699 2929.718018,2850.929932 2932.206543,2850.142822 
	C2952.401611,2843.756348 2960.177490,2829.132080 2959.934082,2808.978271 
	C2959.797363,2797.659668 2960.188721,2786.326904 2959.759277,2775.022705 
	C2959.508545,2768.421875 2958.504395,2761.781250 2957.142334,2755.305176 
	C2954.287842,2741.736328 2945.564209,2732.633301 2932.740479,2728.638428 
	C2923.995850,2725.914062 2914.492676,2724.494629 2905.320068,2724.452637 
	C2833.405762,2724.123535 2761.489258,2724.249023 2689.573486,2724.322266 
	C2685.798828,2724.326172 2682.024902,2725.126953 2677.589844,2725.632080 
	C2677.206543,2729.993652 2676.679443,2733.206299 2676.677490,2736.419678 
	C2676.629883,2817.657959 2676.611572,2898.895996 2676.717041,2980.134277 
	C2676.721924,2983.896484 2677.919678,2987.657227 2678.570557,2991.470459 
	C2682.147217,2991.843750 2684.771729,2992.355957 2687.396729,2992.357178 
	C2761.310303,2992.396973 2835.224365,2992.534180 2909.136230,2992.191895 
	C2918.303711,2992.149170 2927.458984,2989.514648 2939.615479,2986.907959 
M3469.998779,3541.058350 
	C3434.026123,3541.056152 3398.053467,3541.121582 3362.081543,3540.963379 
	C3357.743652,3540.944336 3353.411377,3539.716309 3348.944092,3539.028076 
	C3348.648682,3535.118164 3348.283203,3532.516357 3348.281006,3529.914062 
	C3348.244141,3483.949463 3348.206543,3437.984375 3348.333496,3392.020264 
	C3348.343750,3388.280029 3349.544922,3384.542969 3350.142090,3381.097656 
	C3373.037598,3378.861572 3531.480957,3379.356201 3546.613281,3381.622314 
	C3551.418457,3389.001953 3544.985107,3398.751953 3551.790771,3406.712891 
	C3560.022217,3405.017090 3568.476807,3403.425293 3576.856934,3401.508057 
	C3585.745361,3399.474609 3595.251953,3399.411621 3603.627197,3394.035889 
	C3604.492188,3381.671875 3604.025635,3369.914307 3600.858398,3358.130615 
	C3596.382080,3341.477539 3585.504639,3331.923340 3569.150635,3328.634277 
	C3561.377930,3327.071533 3553.273193,3326.613525 3545.316895,3326.594482 
	C3480.700195,3326.440430 3416.082764,3326.438232 3351.466064,3326.601318 
	C3343.511963,3326.621582 3335.411621,3327.151611 3327.639404,3328.729004 
	C3310.310547,3332.246582 3299.140869,3342.755859 3295.939697,3360.458984 
	C3294.406494,3368.937500 3293.262207,3377.617188 3293.218018,3386.212646 
	C3292.965088,3435.506592 3292.976074,3484.803467 3293.208008,3534.097900 
	C3293.248535,3542.701904 3294.195557,3551.401855 3295.717773,3559.878662 
	C3299.035156,3578.347900 3310.474365,3589.231445 3328.847656,3592.515381 
	C3336.029297,3593.798828 3343.372803,3594.829590 3350.645264,3594.849365 
	C3415.927979,3595.026611 3481.211670,3595.025879 3546.494385,3594.851074 
	C3553.767822,3594.831543 3561.106689,3593.801270 3568.295166,3592.549561 
	C3585.748291,3589.509766 3597.306152,3579.570557 3601.107422,3561.987305 
	C3602.781982,3554.241455 3603.845215,3546.216064 3603.938965,3538.302734 
	C3604.278320,3509.661865 3604.133057,3481.014648 3604.043213,3452.370361 
	C3604.031250,3448.583252 3603.282471,3444.798340 3602.886230,3441.118652 
	C3599.807129,3440.459961 3597.922119,3439.707275 3596.036133,3439.704102 
	C3548.739502,3439.622559 3501.443115,3439.577881 3454.146729,3439.701660 
	C3451.122070,3439.709717 3448.101074,3441.133789 3444.425781,3442.064453 
	C3444.425781,3450.274414 3444.242432,3457.558350 3444.476074,3464.828857 
	C3444.724609,3472.570068 3443.227051,3480.527100 3446.194092,3488.956055 
	C3463.398438,3489.996826 3479.996338,3489.156982 3496.557617,3489.538574 
	C3513.083252,3489.918945 3529.682373,3488.325195 3545.985107,3490.617676 
	C3549.487793,3507.514160 3549.325195,3526.185059 3545.367920,3541.058838 
	C3521.809082,3541.058838 3497.903809,3541.058838 3469.998779,3541.058350 
M1995.040405,3533.960693 
	C1995.186401,3552.604492 1995.301025,3571.248779 1995.552979,3589.891113 
	C1995.568970,3591.077148 1996.652832,3592.248779 1997.235107,3593.417236 
	C2021.245728,3596.417480 2037.876099,3595.826904 2050.899658,3591.165771 
	C2050.899658,3584.944336 2050.898682,3578.332520 2050.899658,3571.720459 
	C2050.903076,3550.404053 2050.806152,3529.086670 2050.993164,3507.771973 
	C2051.032227,3503.318115 2052.117920,3498.873291 2052.852051,3493.460938 
	C2066.466553,3493.460938 2079.090576,3493.336914 2091.711426,3493.485596 
	C2121.279785,3493.834229 2112.926514,3490.259521 2135.344238,3511.064941 
	C2160.732910,3534.626953 2186.189941,3558.127686 2211.065918,3582.223877 
	C2220.197510,3591.068848 2229.440674,3596.132080 2242.715332,3595.209717 
	C2259.288818,3594.058594 2276.003418,3594.997070 2292.655518,3594.851074 
	C2294.991943,3594.830566 2298.098633,3596.201904 2300.081543,3591.443604 
	C2297.372070,3588.679932 2294.486328,3585.333496 2291.197998,3582.445557 
	C2262.169922,3556.952637 2233.031982,3531.584473 2204.046631,3506.043213 
	C2200.833740,3503.212158 2195.547607,3501.338135 2197.246338,3494.354004 
	C2202.221191,3494.063232 2207.434326,3493.698242 2212.653320,3493.467285 
	C2220.633789,3493.114014 2228.663818,3493.292969 2236.592773,3492.472656 
	C2261.834229,3489.860840 2274.233887,3478.542480 2276.700928,3453.482910 
	C2279.640137,3423.626709 2279.687256,3393.579590 2276.368896,3363.721924 
	C2274.113770,3343.432861 2261.912842,3331.303711 2241.791504,3328.004883 
	C2234.603760,3326.826172 2227.198486,3326.587158 2219.891846,3326.576904 
	C2149.281006,3326.477783 2078.670410,3326.507324 2008.059570,3326.551514 
	C2004.251709,3326.553955 2000.444092,3327.018311 1997.771973,3327.193359 
	C1996.336914,3329.117432 1995.606567,3329.639404 1995.604858,3330.163818 
	C1995.382324,3396.766602 1995.213501,3463.369629 1995.040405,3533.960693 
M2897.701904,3469.999512 
	C2897.701904,3483.993896 2897.701660,3497.988525 2897.701660,3511.982910 
	C2897.701416,3525.311035 2897.446533,3538.645752 2897.772217,3551.965820 
	C2898.109375,3565.751465 2896.159180,3579.701416 2899.370605,3593.982422 
	C2917.313721,3595.481201 2934.340820,3595.524658 2952.754150,3593.903564 
	C2953.030273,3586.734863 2953.490234,3580.217529 2953.499023,3573.699951 
	C2953.566895,3523.719238 2953.494385,3473.738281 2953.650391,3423.758057 
	C2953.663574,3419.587158 2951.570557,3414.151123 2958.875732,3411.566406 
	C2963.532715,3415.376709 2968.680908,3419.401611 2973.625000,3423.663574 
	C3019.554688,3463.254883 3065.446289,3502.890381 3111.354736,3542.506348 
	C3129.012207,3557.743408 3146.592041,3573.073242 3164.431885,3588.094238 
	C3167.853027,3590.975098 3172.215576,3594.235107 3176.332520,3594.511475 
	C3188.772461,3595.346436 3201.354736,3595.683105 3214.765869,3593.988770 
	C3216.713379,3570.996094 3215.473389,3549.135010 3215.700195,3527.328613 
	C3215.928467,3505.339600 3215.750488,3483.345947 3215.750488,3461.354492 
	C3215.750488,3438.696533 3215.986084,3416.035645 3215.682373,3393.381836 
	C3215.390869,3371.637939 3217.018555,3349.815430 3214.451172,3326.768555 
	C3201.627930,3326.672119 3189.725830,3326.474854 3177.825195,3326.542969 
	C3172.595215,3326.572998 3167.368408,3327.143066 3160.918701,3327.543945 
	C3160.679199,3334.789307 3160.286377,3341.278320 3160.278320,3347.767822 
	C3160.215088,3398.414795 3160.273193,3449.062256 3160.111572,3499.708740 
	C3160.100098,3503.257568 3162.038330,3507.763428 3156.512939,3510.615234 
	C3152.180664,3507.141357 3147.484863,3503.604736 3143.039795,3499.777344 
	C3083.957764,3448.906982 3024.912842,3397.994141 2965.854248,3347.097168 
	C2959.797119,3341.876709 2953.831787,3336.538086 2947.579590,3331.561279 
	C2945.058105,3329.554199 2941.953613,3327.208740 2938.986084,3327.018066 
	C2925.837158,3326.174072 2912.636963,3325.955078 2900.291992,3327.091309 
	C2899.053955,3329.758057 2898.050293,3330.914551 2898.045898,3332.074707 
	C2897.874756,3376.716064 2897.795166,3421.357910 2897.701904,3469.999512 
M2355.923584,3362.259277 
	C2355.923340,3432.875732 2355.875488,3503.492432 2356.003662,3574.108643 
	C2356.015137,3580.515869 2354.223389,3587.335205 2358.843262,3594.577393 
	C2372.439941,3594.688965 2386.312012,3594.874023 2400.184082,3594.863281 
	C2403.364746,3594.860840 2406.544922,3594.184814 2410.875488,3593.686279 
	C2411.179688,3586.320312 2411.669922,3579.833008 2411.679688,3573.345459 
	C2411.756104,3522.714844 2411.708252,3472.083984 2411.818115,3421.453613 
	C2411.825928,3417.802246 2410.410645,3413.269531 2416.424805,3411.005859 
	C2421.149658,3414.906494 2426.322754,3419.020020 2431.324951,3423.331787 
	C2470.682617,3457.254150 2510.009277,3491.213135 2549.343018,3525.163818 
	C2573.043701,3545.621094 2596.720215,3566.106445 2620.455566,3586.523193 
	C2624.948730,3590.387939 2629.089355,3595.014404 2635.832031,3594.848877 
	C2647.686523,3594.557617 2659.616211,3595.901123 2671.411621,3593.929199 
	C2672.205566,3591.389893 2673.295898,3589.526855 2673.297852,3587.662842 
	C2673.387695,3503.058350 2673.391602,3418.453857 2673.325928,3333.849365 
	C2673.324463,3332.008301 2672.392822,3330.167725 2671.675781,3327.516113 
	C2662.455566,3325.632568 2653.176514,3326.750977 2644.010254,3326.601807 
	C2636.171387,3326.474121 2628.323975,3326.886719 2619.539062,3327.081055 
	C2617.889648,3338.079834 2618.723877,3347.984375 2618.593262,3357.810303 
	C2618.460449,3367.801270 2618.563721,3377.795654 2618.563721,3387.788574 
	C2618.563721,3397.781494 2618.563721,3407.774170 2618.563721,3417.767090 
	C2618.563721,3428.426270 2618.563965,3439.085205 2618.563721,3449.744385 
	C2618.563721,3459.737305 2618.811035,3469.738037 2618.491943,3479.720947 
	C2618.184570,3489.336914 2620.051025,3499.231934 2616.511475,3509.684570 
	C2608.229736,3508.062256 2604.142090,3502.458984 2599.349854,3498.345215 
	C2548.298584,3454.522217 2497.371094,3410.554443 2446.406982,3366.629639 
	C2433.287598,3355.322754 2420.239014,3343.931641 2406.970703,3332.802002 
	C2404.003662,3330.313232 2400.315918,3327.201172 2396.847412,3327.055908 
	C2383.675537,3326.504395 2370.370605,3325.200195 2355.923584,3328.335205 
	C2355.923584,3338.536133 2355.923584,3348.447510 2355.923584,3362.259277 
M1324.604980,3398.003906 
	C1324.604370,3457.324707 1324.571167,3516.645508 1324.655151,3575.966309 
	C1324.663208,3581.729492 1325.396118,3587.491699 1325.842651,3593.981445 
	C1331.045776,3594.374756 1334.922974,3594.921143 1338.800415,3594.923340 
	C1420.116455,3594.972168 1501.432617,3594.983398 1582.748535,3594.883057 
	C1586.526123,3594.878418 1590.302368,3593.765625 1595.388916,3592.962158 
	C1595.388916,3584.216064 1595.553101,3576.309570 1595.344238,3568.413330 
	C1595.120361,3559.944092 1596.487305,3551.301025 1593.710938,3541.879639 
	C1579.289917,3540.310059 1565.384644,3541.244873 1551.545044,3541.089111 
	C1537.549683,3540.931396 1523.551392,3541.054443 1509.554321,3541.054443 
	C1494.890747,3541.054443 1480.227295,3541.054443 1465.563721,3541.054443 
	C1451.566650,3541.054443 1437.566895,3541.231201 1423.573486,3541.004150 
	C1409.788818,3540.780518 1395.899170,3542.098145 1382.493774,3540.045898 
	C1379.545166,3520.671631 1379.672485,3498.821533 1383.015381,3481.600830 
	C1403.040283,3481.399170 1423.560913,3481.638184 1444.073242,3481.468262 
	C1464.605835,3481.298096 1485.177734,3482.143555 1505.407959,3480.941895 
	C1508.495483,3460.296875 1508.150757,3445.523926 1504.193359,3431.572510 
	C1497.942627,3431.572510 1491.340088,3431.572998 1484.737549,3431.572754 
	C1454.743896,3431.571045 1424.749878,3431.642822 1394.756958,3431.486084 
	C1390.353394,3431.463135 1385.955444,3430.353760 1381.155029,3429.691895 
	C1380.393066,3412.819092 1379.298584,3397.123047 1381.850220,3380.509277 
	C1389.391113,3380.241699 1395.930298,3379.813721 1402.469849,3379.807861 
	C1459.791016,3379.754639 1517.112305,3379.833984 1574.433105,3379.687500 
	C1580.173340,3379.672852 1586.473633,3381.549805 1592.318970,3376.054688 
	C1591.907837,3360.383057 1593.786987,3344.000732 1590.903931,3326.536865 
	C1504.441162,3326.536865 1419.199097,3326.525146 1333.956909,3326.594482 
	C1331.397583,3326.596680 1328.838989,3327.451416 1325.050659,3328.128174 
	C1324.125488,3350.302002 1324.832520,3372.167725 1324.604980,3398.003906 
M3482.000000,2724.239746 
	C3438.041748,2724.396240 3394.083252,2724.539307 3350.125488,2724.782471 
	C3348.992432,2724.788818 3347.865967,2725.889404 3345.505615,2727.122314 
	C3345.266113,2729.541748 3344.678467,2732.720947 3344.676514,2735.900635 
	C3344.627197,2817.847656 3344.620117,2899.794678 3344.709961,2981.741699 
	C3344.713379,2984.870850 3345.749023,2987.999023 3346.335693,2991.309326 
	C3349.812500,2991.750977 3352.398438,2992.365234 3354.984619,2992.366943 
	C3438.264160,2992.419434 3521.543701,2992.430176 3604.823242,2992.347900 
	C3607.913574,2992.344971 3611.003174,2991.351807 3614.826172,2990.693848 
	C3615.081543,2973.260254 3617.119629,2956.943848 3613.341064,2939.581543 
	C3605.909668,2939.581543 3599.309570,2939.581543 3592.709473,2939.581543 
	C3534.746826,2939.581543 3476.784180,2939.638428 3418.822021,2939.491943 
	C3413.086426,2939.477539 3406.809326,2941.329834 3401.039795,2936.084473 
	C3400.329346,2918.243164 3399.374268,2899.896973 3401.728516,2880.545654 
	C3409.248047,2880.255615 3415.762207,2879.803711 3422.277100,2879.787109 
	C3452.257812,2879.710205 3482.238525,2879.798584 3512.218750,2879.708252 
	C3516.675781,2879.694824 3521.130615,2879.045898 3526.584961,2878.611328 
	C3527.397949,2861.758545 3528.623291,2846.205078 3525.762207,2829.755127 
	C3518.076416,2829.505127 3511.529297,2829.122559 3504.981445,2829.107910 
	C3475.000732,2829.041260 3445.020020,2829.130371 3415.039795,2829.019775 
	C3410.628174,2829.003418 3406.218994,2828.216309 3400.601318,2827.668213 
	C3400.842041,2810.604248 3398.936035,2794.894287 3401.867920,2779.730713 
	C3409.143555,2776.238037 3415.913086,2777.542969 3422.488281,2777.531250 
	C3479.784668,2777.429199 3537.081299,2777.528076 3594.377197,2777.382812 
	C3600.072021,2777.368408 3606.290527,2779.166748 3612.398926,2773.854492 
	C3612.398926,2766.610840 3612.623779,2758.660400 3612.337402,2750.728516 
	C3612.034424,2742.327637 3613.931152,2733.641357 3610.013916,2724.239990 
	C3568.394287,2724.239990 3527.197021,2724.239990 3482.000000,2724.239746 
M2025.873047,2743.147217 
	C2025.545776,2737.296143 2025.218506,2731.445068 2024.812378,2724.185059 
	C2006.423340,2724.802002 1989.330322,2723.110107 1971.565918,2725.383545 
	C1971.052734,2729.155518 1970.236328,2732.372070 1970.233154,2735.589600 
	C1970.166992,2801.546387 1970.136475,2867.503174 1970.282104,2933.459473 
	C1970.298218,2940.760010 1970.969116,2948.130859 1972.127075,2955.342285 
	C1975.053467,2973.569824 1985.148560,2985.771973 2003.585938,2989.766602 
	C2010.683105,2991.304443 2018.057007,2992.258789 2025.308594,2992.281250 
	C2087.267578,2992.472656 2149.227783,2992.497559 2211.186279,2992.251221 
	C2219.076904,2992.219971 2227.086670,2990.913818 2234.820557,2989.201660 
	C2250.801514,2985.663574 2260.279541,2974.991943 2263.419189,2959.320557 
	C2265.369629,2949.585449 2266.420654,2939.508301 2266.462158,2929.578857 
	C2266.727295,2866.287842 2266.624756,2802.995361 2266.547607,2739.703369 
	C2266.541992,2735.192139 2265.775391,2730.682129 2265.295654,2725.440918 
	C2247.292480,2723.388184 2230.205811,2724.086426 2213.306885,2724.902588 
	C2209.398438,2731.642090 2210.932861,2738.431641 2210.919434,2744.932617 
	C2210.800049,2802.894531 2210.912109,2860.856934 2210.757812,2918.818604 
	C2210.740723,2925.218750 2212.667480,2932.100342 2207.729980,2938.516357 
	C2205.450684,2938.834961 2202.873535,2939.507568 2200.295898,2939.510498 
	C2145.665039,2939.570312 2091.034180,2939.587646 2036.403687,2939.467041 
	C2033.331909,2939.460205 2030.262939,2938.196533 2027.730347,2937.636719 
	C2026.980225,2935.311035 2026.219971,2934.050293 2026.216797,2932.787354 
	C2026.060791,2870.830811 2025.969849,2808.873779 2025.873047,2743.147217 
M1048.501343,2926.011719 
	C1060.653931,2948.084717 1072.806641,2970.157471 1084.776489,2991.898438 
	C1101.417603,2991.898438 1116.603394,2991.898438 1132.854858,2991.898438 
	C1189.941772,2882.698975 1246.988892,2773.594971 1303.938843,2664.439941 
	C1304.755005,2662.875488 1304.353271,2660.675293 1304.611206,2657.726807 
	C1286.363037,2656.536865 1268.588135,2656.886475 1249.498169,2657.616699 
	C1243.798340,2668.533447 1237.920288,2679.629883 1232.194092,2690.803955 
	C1226.424194,2702.063477 1220.826782,2713.411133 1215.113770,2724.699951 
	C1209.399902,2735.990967 1203.632812,2747.255127 1197.895386,2758.533936 
	C1192.460205,2769.218262 1187.027222,2779.903809 1181.604248,2790.594482 
	C1175.880493,2801.878418 1170.168335,2813.168457 1164.454224,2824.457275 
	C1158.740234,2835.746094 1153.032349,2847.037842 1147.317139,2858.326172 
	C1141.602661,2869.612305 1136.207764,2881.076416 1130.072266,2892.129150 
	C1124.063843,2902.953369 1120.338379,2915.182373 1110.377930,2926.442139 
	C1085.601562,2880.554199 1062.194336,2835.951904 1038.522705,2791.494385 
	C1014.765442,2746.876221 991.012024,2702.255615 967.691406,2658.452393 
	C941.244690,2655.809326 918.599792,2656.393311 905.616638,2659.847168 
	C905.529175,2660.471924 905.153198,2661.253174 905.395020,2661.699707 
	C952.636719,2748.931396 999.922241,2836.139404 1048.501343,2926.011719 
M1584.641479,2992.398193 
	C1602.466187,2992.373291 1620.290771,2992.348145 1639.468628,2992.321289 
	C1638.192871,2988.179443 1637.834839,2985.557861 1636.651367,2983.385986 
	C1589.566040,2896.974609 1542.539307,2810.530273 1495.120850,2724.702148 
	C1472.459961,2724.702148 1451.208374,2724.702148 1429.845825,2724.702148 
	C1427.788330,2727.697754 1425.655518,2730.280029 1424.083374,2733.167236 
	C1378.897217,2816.160645 1333.751831,2899.175781 1288.699097,2982.241455 
	C1287.276978,2984.863281 1286.905273,2988.054932 1285.780151,2991.876465 
	C1304.379883,2991.876465 1321.594727,2991.876465 1339.144287,2991.876465 
	C1352.727783,2972.876465 1359.749878,2950.185791 1374.149170,2930.864990 
	C1431.366089,2931.344482 1488.470947,2930.308105 1545.505371,2931.512207 
	C1554.634766,2948.466797 1563.037476,2964.304443 1571.694092,2980.001709 
	C1574.170898,2984.493164 1575.366943,2990.191162 1584.641479,2992.398193 
M2294.158691,2988.046631 
	C2295.229980,2989.400146 2296.283936,2991.916260 2297.375488,2991.933105 
	C2313.947021,2992.183838 2330.523438,2992.107422 2347.101074,2992.107422 
	C2360.846924,2972.575684 2367.799805,2949.851074 2381.425293,2931.926758 
	C2419.247314,2929.354004 2539.443359,2930.313965 2554.152100,2933.254150 
	C2565.818848,2952.301025 2574.734131,2973.109619 2586.989746,2992.443359 
	C2594.437744,2992.443359 2601.059082,2992.443359 2607.680420,2992.443115 
	C2614.341309,2992.442871 2621.005859,2992.574463 2627.662354,2992.404053 
	C2633.963623,2992.242920 2640.480957,2993.357422 2646.810791,2991.086426 
	C2640.600342,2974.782471 2514.393311,2743.054688 2501.581787,2724.349854 
	C2480.617188,2724.468262 2458.853271,2723.346436 2436.304443,2725.171387 
	C2389.177002,2812.047852 2342.216553,2898.616211 2294.158691,2988.046631 
M1638.704224,3540.241455 
	C1629.713989,3557.774170 1618.569092,3574.252930 1610.994141,3594.276855 
	C1630.394531,3595.151611 1648.039795,3595.767578 1665.500854,3593.862549 
	C1678.682007,3573.817139 1686.526489,3551.624023 1699.807739,3533.059570 
	C1757.339478,3533.059570 1813.851440,3533.059570 1871.032837,3533.059570 
	C1882.284912,3553.584717 1893.432007,3573.918701 1904.161499,3593.490479 
	C1928.517212,3596.004883 1951.031738,3595.563477 1964.646362,3592.404541 
	C1964.295288,3590.540283 1964.394409,3588.413574 1963.522583,3586.816895 
	C1916.342896,3500.412842 1869.081421,3414.053467 1821.785034,3327.610352 
	C1817.038452,3327.202148 1813.130493,3326.598145 1809.218994,3326.575439 
	C1791.303711,3326.470947 1773.387451,3326.529541 1754.768066,3326.529541 
	C1716.250000,3397.393066 1678.144043,3467.498535 1638.704224,3540.241455 
M961.591064,3545.919922 
	C962.041931,3561.696777 960.521179,3577.578369 962.560425,3592.516357 
	C965.275085,3593.708740 966.431946,3594.615723 967.630615,3594.674805 
	C972.940674,3594.936768 978.262939,3595.055176 983.580444,3595.046387 
	C1078.102173,3594.889160 1172.623901,3594.707275 1267.145386,3594.496094 
	C1267.736206,3594.494873 1268.359863,3594.067139 1268.906616,3593.736816 
	C1269.472046,3593.395020 1269.962158,3592.928711 1271.261841,3591.906006 
	C1272.647217,3576.144287 1272.855713,3559.776611 1271.090454,3542.958740 
	C1263.575684,3539.823486 1256.199341,3541.025391 1249.046021,3541.016113 
	C1179.810303,3540.927490 1110.574219,3541.025879 1041.338745,3540.865967 
	C1034.272217,3540.849854 1026.810425,3542.597900 1018.750916,3538.131592 
	C1018.750916,3519.744141 1018.750916,3501.207764 1018.750854,3482.671387 
	C1018.750854,3464.031006 1018.750854,3445.390381 1018.750854,3426.750000 
	C1018.750854,3408.775391 1018.750854,3390.800537 1018.750854,3372.825928 
	C1018.750854,3354.185547 1018.989380,3335.541260 1018.683472,3316.906006 
	C1018.379883,3298.407471 1020.043762,3279.835938 1017.629456,3261.087402 
	C1007.999695,3257.883057 998.607544,3259.322021 989.469604,3259.563232 
	C980.510925,3259.799316 971.038635,3256.858887 961.592163,3262.314453 
	C961.592163,3355.618652 961.592163,3448.780762 961.591064,3545.919922 
M1923.852417,2940.941895 
	C1917.253418,2940.489258 1910.655151,2939.656738 1904.055298,2939.643799 
	C1850.075073,2939.536865 1796.094116,2939.647461 1742.114136,2939.487549 
	C1736.411743,2939.470703 1730.013428,2941.485352 1724.398804,2935.114746 
	C1724.398804,2928.765869 1724.398804,2921.462158 1724.398804,2914.158447 
	C1724.398438,2856.845703 1724.457764,2799.532959 1724.304810,2742.220703 
	C1724.289429,2736.517090 1726.234619,2730.199951 1720.305664,2724.239746 
	C1712.612061,2724.239746 1704.005615,2724.031494 1695.413940,2724.298584 
	C1686.989380,2724.560303 1678.310303,2722.821533 1669.746094,2726.108887 
	C1669.312012,2729.441895 1668.688721,2732.001709 1668.687134,2734.562012 
	C1668.637085,2817.198730 1668.623291,2899.835205 1668.741943,2982.471680 
	C1668.746338,2985.519287 1670.132935,2988.564453 1670.820068,2991.383789 
	C1673.788330,2991.804443 1675.755859,2992.326172 1677.723633,2992.327148 
	C1757.694214,2992.370117 1837.664795,2992.380859 1917.635254,2992.296143 
	C1920.058960,2992.293701 1922.481567,2991.230469 1925.785034,2990.455322 
	C1926.557251,2974.507324 1926.615845,2959.293457 1923.852417,2940.941895 
M3039.917480,2882.000000 
	C3039.917480,2899.970703 3039.619141,2917.947998 3040.000244,2935.910645 
	C3040.390137,2954.279541 3038.272705,2972.789062 3041.538086,2991.386230 
	C3045.109131,2991.794434 3047.682617,2992.347412 3050.255615,2992.344482 
	C3130.783203,2992.254150 3211.310547,2992.111084 3291.838135,2991.948730 
	C3292.444092,2991.947510 3293.104004,2991.653564 3293.640137,2991.332275 
	C3294.199951,2990.996826 3294.640625,2990.462402 3296.389404,2988.874023 
	C3296.518311,2982.219482 3296.856689,2974.358643 3296.771973,2966.502197 
	C3296.681152,2958.058105 3297.682861,2949.478027 3295.406250,2939.889893 
	C3281.326416,2939.787354 3268.150879,2939.653564 3254.974854,2939.605957 
	C3241.663330,2939.558105 3228.351562,2939.595459 3215.039795,2939.595459 
	C3202.393555,2939.595459 3189.747559,2939.595459 3177.101318,2939.595459 
	C3163.789551,2939.595459 3150.476807,2939.702881 3137.166504,2939.565186 
	C3124.028564,2939.428955 3110.831055,2940.219727 3096.613525,2938.833984 
	C3096.274170,2931.130127 3095.747314,2924.639648 3095.740234,2918.148682 
	C3095.675293,2859.577148 3095.758789,2801.005371 3095.611816,2742.434326 
	C3095.597412,2736.710693 3097.488037,2730.424561 3091.698486,2724.254150 
	C3084.084961,2724.254150 3075.494141,2724.077148 3066.913818,2724.304199 
	C3058.464600,2724.527588 3049.819824,2723.038818 3042.151855,2725.541992 
	C3041.207764,2727.889160 3040.317139,2729.074463 3040.312744,2730.262695 
	C3040.131348,2779.508301 3040.029541,2828.754150 3039.917480,2882.000000 
M2813.578369,3565.415039 
	C2813.341797,3486.861816 2813.107666,3408.308350 2812.814697,3329.755371 
	C2812.812988,3329.263916 2811.995605,3328.775635 2810.514893,3327.114746 
	C2793.971436,3326.376221 2776.396484,3325.219727 2758.903809,3327.967773 
	C2758.375977,3331.060791 2757.759277,3332.993408 2757.757812,3334.926514 
	C2757.699463,3418.161377 2757.673096,3501.396484 2757.774902,3584.631348 
	C2757.778564,3587.746582 2759.092041,3590.860352 2760.027100,3595.002441 
	C2769.244873,3595.002441 2777.854004,3595.173828 2786.453125,3594.953857 
	C2794.903809,3594.738037 2803.523926,3596.153320 2813.175781,3593.254150 
	C2813.314209,3584.967773 2813.445557,3577.092041 2813.578369,3565.415039 
z"/>
<path fill="#02AEEF" opacity="1.000000" stroke="none" 
	d="
M2179.820312,2187.731445 
	C2193.288818,2229.782715 2206.347412,2270.305176 2219.120850,2309.942139 
	C2227.500488,2314.095215 2234.942871,2312.501221 2242.106201,2312.507568 
	C2364.758301,2312.619141 2487.410156,2312.585938 2610.062256,2312.585449 
	C2718.049316,2312.584961 2826.036377,2312.585449 2934.023438,2312.585449 
	C2941.317627,2312.585449 2948.611816,2312.585449 2956.368408,2312.585449 
	C2957.528564,2315.747314 2959.153320,2318.123779 2959.162842,2320.506348 
	C2959.322998,2360.499756 2959.301758,2400.493896 2959.219238,2440.487793 
	C2959.215332,2442.343262 2958.257812,2444.196289 2957.686279,2446.260742 
	C2955.668213,2446.969482 2953.863525,2448.158691 2952.058105,2448.159180 
	C2665.487305,2448.241211 2378.916260,2448.237305 2092.410400,2448.237305 
	C2087.047607,2441.708740 2085.944336,2434.332520 2083.766846,2427.511230 
	C2046.901245,2312.031494 2010.092285,2196.533691 1973.334473,2081.019531 
	C1928.496826,1940.114136 1883.738770,1799.183594 1838.910034,1658.275391 
	C1754.909058,1394.238037 1670.880981,1130.209229 1586.866943,866.175964 
	C1578.788940,840.789062 1570.711304,815.401855 1562.685913,789.998230 
	C1561.490723,786.214905 1560.586548,782.339600 1559.223022,777.308350 
	C1562.457642,776.247803 1565.346924,774.481873 1568.241699,774.473022 
	C1618.234619,774.319885 1668.228149,774.369934 1718.221436,774.449280 
	C1720.151611,774.452332 1722.080688,775.193726 1724.436890,775.678955 
	C1729.410522,781.280945 1730.320435,788.747620 1732.520630,795.580750 
	C1770.696045,914.141785 1808.805908,1032.723877 1846.907104,1151.308838 
	C1927.182739,1401.156006 2007.442505,1651.008301 2087.713623,1900.857056 
	C2118.272461,1995.974243 2148.844238,2091.087402 2179.820312,2187.731445 
z"/>
<path fill="#02AEEF" opacity="1.000000" stroke="none" 
	d="
M2535.751953,1748.219360 
	C2494.103760,1872.828735 2452.880615,1995.913574 2410.697754,2121.863770 
	C2407.862549,2115.858398 2405.664551,2112.337402 2404.469482,2108.504150 
	C2379.303711,2027.788086 2354.331787,1947.011719 2329.062012,1866.328491 
	C2326.293457,1857.488159 2327.439941,1849.608765 2330.277100,1841.113159 
	C2354.315430,1769.139526 2378.097900,1697.080444 2401.918945,1625.034424 
	C2493.670654,1347.532715 2585.404541,1070.025146 2677.180176,792.531250 
	C2679.032471,786.930481 2681.314209,781.471802 2683.209717,776.441284 
	C2698.973389,773.859924 2832.481201,773.194519 2857.605713,775.410278 
	C2861.738525,779.975708 2858.110107,784.178833 2856.739258,788.293823 
	C2828.750732,872.315979 2800.688477,956.313538 2772.600098,1040.302368 
	C2705.671387,1240.429932 2638.727051,1440.552368 2571.774170,1640.671753 
	C2559.945801,1676.025269 2548.044678,1711.354492 2535.751953,1748.219360 
z"/>
<path fill="#EC1F28" opacity="1.000000" stroke="none" 
	d="
M2938.117676,2987.494629 
	C2927.458984,2989.514648 2918.303711,2992.149170 2909.136230,2992.191895 
	C2835.224365,2992.534180 2761.310303,2992.396973 2687.396729,2992.357178 
	C2684.771729,2992.355957 2682.147217,2991.843750 2678.570557,2991.470459 
	C2677.919678,2987.657227 2676.721924,2983.896484 2676.717041,2980.134277 
	C2676.611572,2898.895996 2676.629883,2817.657959 2676.677490,2736.419678 
	C2676.679443,2733.206299 2677.206543,2729.993652 2677.589844,2725.632080 
	C2682.024902,2725.126953 2685.798828,2724.326172 2689.573486,2724.322266 
	C2761.489258,2724.249023 2833.405762,2724.123535 2905.320068,2724.452637 
	C2914.492676,2724.494629 2923.995850,2725.914062 2932.740479,2728.638428 
	C2945.564209,2732.633301 2954.287842,2741.736328 2957.142334,2755.305176 
	C2958.504395,2761.781250 2959.508545,2768.421875 2959.759277,2775.022705 
	C2960.188721,2786.326904 2959.797363,2797.659668 2959.934082,2808.978271 
	C2960.177490,2829.132080 2952.401611,2843.756348 2932.206543,2850.142822 
	C2929.718018,2850.929932 2927.435059,2852.366699 2923.984619,2854.014404 
	C2929.100342,2856.343994 2933.295166,2858.135498 2937.386230,2860.139160 
	C2951.063477,2866.836914 2959.448486,2877.939941 2960.146729,2892.955078 
	C2961.104004,2913.530762 2961.020264,2934.212891 2960.143799,2954.796387 
	C2959.544189,2968.875732 2952.603271,2980.131348 2938.117676,2987.494629 
M2904.652588,2889.997314 
	C2902.584473,2884.293945 2897.916992,2881.968018 2892.447510,2881.128174 
	C2888.529785,2880.526611 2884.510498,2880.390625 2880.536133,2880.385742 
	C2834.692139,2880.330322 2788.848145,2880.309814 2743.004395,2880.398926 
	C2739.898682,2880.404785 2736.795166,2881.363281 2732.508545,2882.075195 
	C2732.431396,2892.169922 2732.128418,2901.367188 2732.356689,2910.551270 
	C2732.583008,2919.650879 2731.129395,2928.929688 2733.732422,2938.409180 
	C2737.060791,2938.898926 2739.584961,2939.590820 2742.110107,2939.594482 
	C2788.618408,2939.658936 2835.126709,2939.652344 2881.635010,2939.616211 
	C2884.948486,2939.613525 2888.308105,2939.548340 2891.565430,2939.016846 
	C2900.456787,2937.565186 2904.972168,2933.935791 2905.722412,2924.921631 
	C2906.595947,2914.429688 2905.741699,2903.793457 2904.652588,2889.997314 
M2902.121338,2822.781250 
	C2902.881348,2816.893066 2904.197266,2811.014893 2904.303711,2805.114990 
	C2904.738525,2781.066162 2901.253906,2777.301514 2876.994873,2777.156982 
	C2833.093506,2776.895508 2789.189453,2777.041016 2745.286621,2777.139404 
	C2741.477539,2777.147949 2737.670410,2778.066162 2732.843994,2778.694580 
	C2731.806152,2790.698975 2732.266357,2801.927490 2732.284668,2813.116211 
	C2732.292969,2818.283936 2732.896484,2823.450684 2733.226807,2828.565918 
	C2735.936768,2829.510010 2737.756836,2830.693848 2739.579834,2830.698486 
	C2786.806396,2830.819824 2834.033203,2830.870850 2881.260010,2830.779785 
	C2887.897461,2830.767090 2894.609375,2830.228271 2902.121338,2822.781250 
z"/>
<path fill="#EC222A" opacity="1.000000" stroke="none" 
	d="
M3471.998535,3541.058594 
	C3497.903809,3541.058838 3521.809082,3541.058838 3545.367920,3541.058838 
	C3549.325195,3526.185059 3549.487793,3507.514160 3545.985107,3490.617676 
	C3529.682373,3488.325195 3513.083252,3489.918945 3496.557617,3489.538574 
	C3479.996338,3489.156982 3463.398438,3489.996826 3446.194092,3488.956055 
	C3443.227051,3480.527100 3444.724609,3472.570068 3444.476074,3464.828857 
	C3444.242432,3457.558350 3444.425781,3450.274414 3444.425781,3442.064453 
	C3448.101074,3441.133789 3451.122070,3439.709717 3454.146729,3439.701660 
	C3501.443115,3439.577881 3548.739502,3439.622559 3596.036133,3439.704102 
	C3597.922119,3439.707275 3599.807129,3440.459961 3602.886230,3441.118652 
	C3603.282471,3444.798340 3604.031250,3448.583252 3604.043213,3452.370361 
	C3604.133057,3481.014648 3604.278320,3509.661865 3603.938965,3538.302734 
	C3603.845215,3546.216064 3602.781982,3554.241455 3601.107422,3561.987305 
	C3597.306152,3579.570557 3585.748291,3589.509766 3568.295166,3592.549561 
	C3561.106689,3593.801270 3553.767822,3594.831543 3546.494385,3594.851074 
	C3481.211670,3595.025879 3415.927979,3595.026611 3350.645264,3594.849365 
	C3343.372803,3594.829590 3336.029297,3593.798828 3328.847656,3592.515381 
	C3310.474365,3589.231445 3299.035156,3578.347900 3295.717773,3559.878662 
	C3294.195557,3551.401855 3293.248535,3542.701904 3293.208008,3534.097900 
	C3292.976074,3484.803467 3292.965088,3435.506592 3293.218018,3386.212646 
	C3293.262207,3377.617188 3294.406494,3368.937500 3295.939697,3360.458984 
	C3299.140869,3342.755859 3310.310547,3332.246582 3327.639404,3328.729004 
	C3335.411621,3327.151611 3343.511963,3326.621582 3351.466064,3326.601318 
	C3416.082764,3326.438232 3480.700195,3326.440430 3545.316895,3326.594482 
	C3553.273193,3326.613525 3561.377930,3327.071533 3569.150635,3328.634277 
	C3585.504639,3331.923340 3596.382080,3341.477539 3600.858398,3358.130615 
	C3604.025635,3369.914307 3604.492188,3381.671875 3603.627197,3394.035889 
	C3595.251953,3399.411621 3585.745361,3399.474609 3576.856934,3401.508057 
	C3568.476807,3403.425293 3560.022217,3405.017090 3551.790771,3406.712891 
	C3544.985107,3398.751953 3551.418457,3389.001953 3546.613281,3381.622314 
	C3531.480957,3379.356201 3373.037598,3378.861572 3350.142090,3381.097656 
	C3349.544922,3384.542969 3348.343750,3388.280029 3348.333496,3392.020264 
	C3348.206543,3437.984375 3348.244141,3483.949463 3348.281006,3529.914062 
	C3348.283203,3532.516357 3348.648682,3535.118164 3348.944092,3539.028076 
	C3353.411377,3539.716309 3357.743652,3540.944336 3362.081543,3540.963379 
	C3398.053467,3541.121582 3434.026123,3541.056152 3471.998535,3541.058594 
z"/>
<path fill="#EC2029" opacity="1.000000" stroke="none" 
	d="
M1995.041138,3531.966797 
	C1995.213501,3463.369629 1995.382324,3396.766602 1995.604858,3330.163818 
	C1995.606567,3329.639404 1996.336914,3329.117432 1997.771973,3327.193359 
	C2000.444092,3327.018311 2004.251709,3326.553955 2008.059570,3326.551514 
	C2078.670410,3326.507324 2149.281006,3326.477783 2219.891846,3326.576904 
	C2227.198486,3326.587158 2234.603760,3326.826172 2241.791504,3328.004883 
	C2261.912842,3331.303711 2274.113770,3343.432861 2276.368896,3363.721924 
	C2279.687256,3393.579590 2279.640137,3423.626709 2276.700928,3453.482910 
	C2274.233887,3478.542480 2261.834229,3489.860840 2236.592773,3492.472656 
	C2228.663818,3493.292969 2220.633789,3493.114014 2212.653320,3493.467285 
	C2207.434326,3493.698242 2202.221191,3494.063232 2197.246338,3494.354004 
	C2195.547607,3501.338135 2200.833740,3503.212158 2204.046631,3506.043213 
	C2233.031982,3531.584473 2262.169922,3556.952637 2291.197998,3582.445557 
	C2294.486328,3585.333496 2297.372070,3588.679932 2300.081543,3591.443604 
	C2298.098633,3596.201904 2294.991943,3594.830566 2292.655518,3594.851074 
	C2276.003418,3594.997070 2259.288818,3594.058594 2242.715332,3595.209717 
	C2229.440674,3596.132080 2220.197510,3591.068848 2211.065918,3582.223877 
	C2186.189941,3558.127686 2160.732910,3534.626953 2135.344238,3511.064941 
	C2112.926514,3490.259521 2121.279785,3493.834229 2091.711426,3493.485596 
	C2079.090576,3493.336914 2066.466553,3493.460938 2052.852051,3493.460938 
	C2052.117920,3498.873291 2051.032227,3503.318115 2050.993164,3507.771973 
	C2050.806152,3529.086670 2050.903076,3550.404053 2050.899658,3571.720459 
	C2050.898682,3578.332520 2050.899658,3584.944336 2050.899658,3591.165771 
	C2037.876099,3595.826904 2021.245728,3596.417480 1997.235107,3593.417236 
	C1996.652832,3592.248779 1995.568970,3591.077148 1995.552979,3589.891113 
	C1995.301025,3571.248779 1995.186401,3552.604492 1995.041138,3531.966797 
M2050.854492,3390.466309 
	C2051.154785,3407.539795 2050.056396,3424.674561 2051.677979,3442.540039 
	C2056.157715,3442.990723 2059.334717,3443.584473 2062.512939,3443.588867 
	C2107.007812,3443.650879 2151.502686,3443.636475 2195.997559,3443.623291 
	C2198.652588,3443.622314 2201.321533,3443.622559 2203.959961,3443.369385 
	C2217.047607,3442.112305 2221.118652,3438.151855 2222.447998,3424.588135 
	C2223.028809,3418.661621 2222.904541,3412.644775 2222.792480,3406.674805 
	C2222.358154,3383.522461 2218.947266,3379.857422 2196.286377,3379.761963 
	C2152.456299,3379.577393 2108.625000,3379.688232 2064.794189,3379.714844 
	C2061.481689,3379.716797 2057.886963,3379.299072 2054.959473,3380.445557 
	C2053.116455,3381.166992 2052.272949,3384.441650 2050.854492,3390.466309 
z"/>
<path fill="#EC232B" opacity="1.000000" stroke="none" 
	d="
M2897.702637,3467.999512 
	C2897.795166,3421.357910 2897.874756,3376.716064 2898.045898,3332.074707 
	C2898.050293,3330.914551 2899.053955,3329.758057 2900.291992,3327.091309 
	C2912.636963,3325.955078 2925.837158,3326.174072 2938.986084,3327.018066 
	C2941.953613,3327.208740 2945.058105,3329.554199 2947.579590,3331.561279 
	C2953.831787,3336.538086 2959.797119,3341.876709 2965.854248,3347.097168 
	C3024.912842,3397.994141 3083.957764,3448.906982 3143.039795,3499.777344 
	C3147.484863,3503.604736 3152.180664,3507.141357 3156.512939,3510.615234 
	C3162.038330,3507.763428 3160.100098,3503.257568 3160.111572,3499.708740 
	C3160.273193,3449.062256 3160.215088,3398.414795 3160.278320,3347.767822 
	C3160.286377,3341.278320 3160.679199,3334.789307 3160.918701,3327.543945 
	C3167.368408,3327.143066 3172.595215,3326.572998 3177.825195,3326.542969 
	C3189.725830,3326.474854 3201.627930,3326.672119 3214.451172,3326.768555 
	C3217.018555,3349.815430 3215.390869,3371.637939 3215.682373,3393.381836 
	C3215.986084,3416.035645 3215.750488,3438.696533 3215.750488,3461.354492 
	C3215.750488,3483.345947 3215.928467,3505.339600 3215.700195,3527.328613 
	C3215.473389,3549.135010 3216.713379,3570.996094 3214.765869,3593.988770 
	C3201.354736,3595.683105 3188.772461,3595.346436 3176.332520,3594.511475 
	C3172.215576,3594.235107 3167.853027,3590.975098 3164.431885,3588.094238 
	C3146.592041,3573.073242 3129.012207,3557.743408 3111.354736,3542.506348 
	C3065.446289,3502.890381 3019.554688,3463.254883 2973.625000,3423.663574 
	C2968.680908,3419.401611 2963.532715,3415.376709 2958.875732,3411.566406 
	C2951.570557,3414.151123 2953.663574,3419.587158 2953.650391,3423.758057 
	C2953.494385,3473.738281 2953.566895,3523.719238 2953.499023,3573.699951 
	C2953.490234,3580.217529 2953.030273,3586.734863 2952.754150,3593.903564 
	C2934.340820,3595.524658 2917.313721,3595.481201 2899.370605,3593.982422 
	C2896.159180,3579.701416 2898.109375,3565.751465 2897.772217,3551.965820 
	C2897.446533,3538.645752 2897.701416,3525.311035 2897.701660,3511.982910 
	C2897.701660,3497.988525 2897.701904,3483.993896 2897.702637,3467.999512 
z"/>
<path fill="#EC2028" opacity="1.000000" stroke="none" 
	d="
M2355.923584,3360.309082 
	C2355.923584,3348.447510 2355.923584,3338.536133 2355.923584,3328.335205 
	C2370.370605,3325.200195 2383.675537,3326.504395 2396.847412,3327.055908 
	C2400.315918,3327.201172 2404.003662,3330.313232 2406.970703,3332.802002 
	C2420.239014,3343.931641 2433.287598,3355.322754 2446.406982,3366.629639 
	C2497.371094,3410.554443 2548.298584,3454.522217 2599.349854,3498.345215 
	C2604.142090,3502.458984 2608.229736,3508.062256 2616.511475,3509.684570 
	C2620.051025,3499.231934 2618.184570,3489.336914 2618.491943,3479.720947 
	C2618.811035,3469.738037 2618.563721,3459.737305 2618.563721,3449.744385 
	C2618.563965,3439.085205 2618.563721,3428.426270 2618.563721,3417.767090 
	C2618.563721,3407.774170 2618.563721,3397.781494 2618.563721,3387.788574 
	C2618.563721,3377.795654 2618.460449,3367.801270 2618.593262,3357.810303 
	C2618.723877,3347.984375 2617.889648,3338.079834 2619.539062,3327.081055 
	C2628.323975,3326.886719 2636.171387,3326.474121 2644.010254,3326.601807 
	C2653.176514,3326.750977 2662.455566,3325.632568 2671.675781,3327.516113 
	C2672.392822,3330.167725 2673.324463,3332.008301 2673.325928,3333.849365 
	C2673.391602,3418.453857 2673.387695,3503.058350 2673.297852,3587.662842 
	C2673.295898,3589.526855 2672.205566,3591.389893 2671.411621,3593.929199 
	C2659.616211,3595.901123 2647.686523,3594.557617 2635.832031,3594.848877 
	C2629.089355,3595.014404 2624.948730,3590.387939 2620.455566,3586.523193 
	C2596.720215,3566.106445 2573.043701,3545.621094 2549.343018,3525.163818 
	C2510.009277,3491.213135 2470.682617,3457.254150 2431.324951,3423.331787 
	C2426.322754,3419.020020 2421.149658,3414.906494 2416.424805,3411.005859 
	C2410.410645,3413.269531 2411.825928,3417.802246 2411.818115,3421.453613 
	C2411.708252,3472.083984 2411.756104,3522.714844 2411.679688,3573.345459 
	C2411.669922,3579.833008 2411.179688,3586.320312 2410.875488,3593.686279 
	C2406.544922,3594.184814 2403.364746,3594.860840 2400.184082,3594.863281 
	C2386.312012,3594.874023 2372.439941,3594.688965 2358.843262,3594.577393 
	C2354.223389,3587.335205 2356.015137,3580.515869 2356.003662,3574.108643 
	C2355.875488,3503.492432 2355.923340,3432.875732 2355.923584,3360.309082 
z"/>
<path fill="#EC222B" opacity="1.000000" stroke="none" 
	d="
M1324.604980,3396.005859 
	C1324.832520,3372.167725 1324.125488,3350.302002 1325.050659,3328.128174 
	C1328.838989,3327.451416 1331.397583,3326.596680 1333.956909,3326.594482 
	C1419.199097,3326.525146 1504.441162,3326.536865 1590.903931,3326.536865 
	C1593.786987,3344.000732 1591.907837,3360.383057 1592.318970,3376.054688 
	C1586.473633,3381.549805 1580.173340,3379.672852 1574.433105,3379.687500 
	C1517.112305,3379.833984 1459.791016,3379.754639 1402.469849,3379.807861 
	C1395.930298,3379.813721 1389.391113,3380.241699 1381.850220,3380.509277 
	C1379.298584,3397.123047 1380.393066,3412.819092 1381.155029,3429.691895 
	C1385.955444,3430.353760 1390.353394,3431.463135 1394.756958,3431.486084 
	C1424.749878,3431.642822 1454.743896,3431.571045 1484.737549,3431.572754 
	C1491.340088,3431.572998 1497.942627,3431.572510 1504.193359,3431.572510 
	C1508.150757,3445.523926 1508.495483,3460.296875 1505.407959,3480.941895 
	C1485.177734,3482.143555 1464.605835,3481.298096 1444.073242,3481.468262 
	C1423.560913,3481.638184 1403.040283,3481.399170 1383.015381,3481.600830 
	C1379.672485,3498.821533 1379.545166,3520.671631 1382.493774,3540.045898 
	C1395.899170,3542.098145 1409.788818,3540.780518 1423.573486,3541.004150 
	C1437.566895,3541.231201 1451.566650,3541.054443 1465.563721,3541.054443 
	C1480.227295,3541.054443 1494.890747,3541.054443 1509.554321,3541.054443 
	C1523.551392,3541.054443 1537.549683,3540.931396 1551.545044,3541.089111 
	C1565.384644,3541.244873 1579.289917,3540.310059 1593.710938,3541.879639 
	C1596.487305,3551.301025 1595.120361,3559.944092 1595.344238,3568.413330 
	C1595.553101,3576.309570 1595.388916,3584.216064 1595.388916,3592.962158 
	C1590.302368,3593.765625 1586.526123,3594.878418 1582.748535,3594.883057 
	C1501.432617,3594.983398 1420.116455,3594.972168 1338.800415,3594.923340 
	C1334.922974,3594.921143 1331.045776,3594.374756 1325.842651,3593.981445 
	C1325.396118,3587.491699 1324.663208,3581.729492 1324.655151,3575.966309 
	C1324.571167,3516.645508 1324.604370,3457.324707 1324.604980,3396.005859 
z"/>
<path fill="#EC2129" opacity="1.000000" stroke="none" 
	d="
M3484.000000,2724.239746 
	C3527.197021,2724.239990 3568.394287,2724.239990 3610.013916,2724.239990 
	C3613.931152,2733.641357 3612.034424,2742.327637 3612.337402,2750.728516 
	C3612.623779,2758.660400 3612.398926,2766.610840 3612.398926,2773.854492 
	C3606.290527,2779.166748 3600.072021,2777.368408 3594.377197,2777.382812 
	C3537.081299,2777.528076 3479.784668,2777.429199 3422.488281,2777.531250 
	C3415.913086,2777.542969 3409.143555,2776.238037 3401.867920,2779.730713 
	C3398.936035,2794.894287 3400.842041,2810.604248 3400.601318,2827.668213 
	C3406.218994,2828.216309 3410.628174,2829.003418 3415.039795,2829.019775 
	C3445.020020,2829.130371 3475.000732,2829.041260 3504.981445,2829.107910 
	C3511.529297,2829.122559 3518.076416,2829.505127 3525.762207,2829.755127 
	C3528.623291,2846.205078 3527.397949,2861.758545 3526.584961,2878.611328 
	C3521.130615,2879.045898 3516.675781,2879.694824 3512.218750,2879.708252 
	C3482.238525,2879.798584 3452.257812,2879.710205 3422.277100,2879.787109 
	C3415.762207,2879.803711 3409.248047,2880.255615 3401.728516,2880.545654 
	C3399.374268,2899.896973 3400.329346,2918.243164 3401.039795,2936.084473 
	C3406.809326,2941.329834 3413.086426,2939.477539 3418.822021,2939.491943 
	C3476.784180,2939.638428 3534.746826,2939.581543 3592.709473,2939.581543 
	C3599.309570,2939.581543 3605.909668,2939.581543 3613.341064,2939.581543 
	C3617.119629,2956.943848 3615.081543,2973.260254 3614.826172,2990.693848 
	C3611.003174,2991.351807 3607.913574,2992.344971 3604.823242,2992.347900 
	C3521.543701,2992.430176 3438.264160,2992.419434 3354.984619,2992.366943 
	C3352.398438,2992.365234 3349.812500,2991.750977 3346.335693,2991.309326 
	C3345.749023,2987.999023 3344.713379,2984.870850 3344.709961,2981.741699 
	C3344.620117,2899.794678 3344.627197,2817.847656 3344.676514,2735.900635 
	C3344.678467,2732.720947 3345.266113,2729.541748 3345.505615,2727.122314 
	C3347.865967,2725.889404 3348.992432,2724.788818 3350.125488,2724.782471 
	C3394.083252,2724.539307 3438.041748,2724.396240 3484.000000,2724.239746 
z"/>
<path fill="#EC1F28" opacity="1.000000" stroke="none" 
	d="
M2025.872314,2745.032227 
	C2025.969849,2808.873779 2026.060791,2870.830811 2026.216797,2932.787354 
	C2026.219971,2934.050293 2026.980225,2935.311035 2027.730347,2937.636719 
	C2030.262939,2938.196533 2033.331909,2939.460205 2036.403687,2939.467041 
	C2091.034180,2939.587646 2145.665039,2939.570312 2200.295898,2939.510498 
	C2202.873535,2939.507568 2205.450684,2938.834961 2207.729980,2938.516357 
	C2212.667480,2932.100342 2210.740723,2925.218750 2210.757812,2918.818604 
	C2210.912109,2860.856934 2210.800049,2802.894531 2210.919434,2744.932617 
	C2210.932861,2738.431641 2209.398438,2731.642090 2213.306885,2724.902588 
	C2230.205811,2724.086426 2247.292480,2723.388184 2265.295654,2725.440918 
	C2265.775391,2730.682129 2266.541992,2735.192139 2266.547607,2739.703369 
	C2266.624756,2802.995361 2266.727295,2866.287842 2266.462158,2929.578857 
	C2266.420654,2939.508301 2265.369629,2949.585449 2263.419189,2959.320557 
	C2260.279541,2974.991943 2250.801514,2985.663574 2234.820557,2989.201660 
	C2227.086670,2990.913818 2219.076904,2992.219971 2211.186279,2992.251221 
	C2149.227783,2992.497559 2087.267578,2992.472656 2025.308594,2992.281250 
	C2018.057007,2992.258789 2010.683105,2991.304443 2003.585938,2989.766602 
	C1985.148560,2985.771973 1975.053467,2973.569824 1972.127075,2955.342285 
	C1970.969116,2948.130859 1970.298218,2940.760010 1970.282104,2933.459473 
	C1970.136475,2867.503174 1970.166992,2801.546387 1970.233154,2735.589600 
	C1970.236328,2732.372070 1971.052734,2729.155518 1971.565918,2725.383545 
	C1989.330322,2723.110107 2006.423340,2724.802002 2024.812378,2724.185059 
	C2025.218506,2731.445068 2025.545776,2737.296143 2025.872314,2745.032227 
z"/>
<path fill="#EC222A" opacity="1.000000" stroke="none" 
	d="
M1047.853760,2924.680176 
	C999.922241,2836.139404 952.636719,2748.931396 905.395020,2661.699707 
	C905.153198,2661.253174 905.529175,2660.471924 905.616638,2659.847168 
	C918.599792,2656.393311 941.244690,2655.809326 967.691406,2658.452393 
	C991.012024,2702.255615 1014.765442,2746.876221 1038.522705,2791.494385 
	C1062.194336,2835.951904 1085.601562,2880.554199 1110.377930,2926.442139 
	C1120.338379,2915.182373 1124.063843,2902.953369 1130.072266,2892.129150 
	C1136.207764,2881.076416 1141.602661,2869.612305 1147.317139,2858.326172 
	C1153.032349,2847.037842 1158.740234,2835.746094 1164.454224,2824.457275 
	C1170.168335,2813.168457 1175.880493,2801.878418 1181.604248,2790.594482 
	C1187.027222,2779.903809 1192.460205,2769.218262 1197.895386,2758.533936 
	C1203.632812,2747.255127 1209.399902,2735.990967 1215.113770,2724.699951 
	C1220.826782,2713.411133 1226.424194,2702.063477 1232.194092,2690.803955 
	C1237.920288,2679.629883 1243.798340,2668.533447 1249.498169,2657.616699 
	C1268.588135,2656.886475 1286.363037,2656.536865 1304.611206,2657.726807 
	C1304.353271,2660.675293 1304.755005,2662.875488 1303.938843,2664.439941 
	C1246.988892,2773.594971 1189.941772,2882.698975 1132.854858,2991.898438 
	C1116.603394,2991.898438 1101.417603,2991.898438 1084.776489,2991.898438 
	C1072.806641,2970.157471 1060.653931,2948.084717 1047.853760,2924.680176 
z"/>
<path fill="#EC222A" opacity="1.000000" stroke="none" 
	d="
M1582.944824,2992.228271 
	C1575.366943,2990.191162 1574.170898,2984.493164 1571.694092,2980.001709 
	C1563.037476,2964.304443 1554.634766,2948.466797 1545.505371,2931.512207 
	C1488.470947,2930.308105 1431.366089,2931.344482 1374.149170,2930.864990 
	C1359.749878,2950.185791 1352.727783,2972.876465 1339.144287,2991.876465 
	C1321.594727,2991.876465 1304.379883,2991.876465 1285.780151,2991.876465 
	C1286.905273,2988.054932 1287.276978,2984.863281 1288.699097,2982.241455 
	C1333.751831,2899.175781 1378.897217,2816.160645 1424.083374,2733.167236 
	C1425.655518,2730.280029 1427.788330,2727.697754 1429.845825,2724.702148 
	C1451.208374,2724.702148 1472.459961,2724.702148 1495.120850,2724.702148 
	C1542.539307,2810.530273 1589.566040,2896.974609 1636.651367,2983.385986 
	C1637.834839,2985.557861 1638.192871,2988.179443 1639.468628,2992.321289 
	C1620.290771,2992.348145 1602.466187,2992.373291 1582.944824,2992.228271 
M1436.865845,2810.849121 
	C1432.805542,2818.489258 1428.756348,2826.135254 1424.681763,2833.767822 
	C1420.920166,2840.813965 1416.791748,2847.688721 1413.447388,2854.926758 
	C1409.937744,2862.522949 1403.577881,2869.067383 1403.437378,2878.180908 
	C1419.805664,2880.961182 1497.509277,2881.105713 1515.755127,2878.372803 
	C1515.036377,2875.854248 1514.752075,2873.252686 1513.612183,2871.105225 
	C1497.070923,2839.948730 1480.452271,2808.833252 1463.701050,2777.789307 
	C1462.614624,2775.776367 1460.298706,2774.426514 1457.867554,2772.114746 
	C1450.974731,2784.905029 1444.669678,2796.604736 1436.865845,2810.849121 
z"/>
<path fill="#EC222A" opacity="1.000000" stroke="none" 
	d="
M2294.707520,2986.615723 
	C2342.216553,2898.616211 2389.177002,2812.047852 2436.304443,2725.171387 
	C2458.853271,2723.346436 2480.617188,2724.468262 2501.581787,2724.349854 
	C2514.393311,2743.054688 2640.600342,2974.782471 2646.810791,2991.086426 
	C2640.480957,2993.357422 2633.963623,2992.242920 2627.662354,2992.404053 
	C2621.005859,2992.574463 2614.341309,2992.442871 2607.680420,2992.443115 
	C2601.059082,2992.443359 2594.437744,2992.443359 2586.989746,2992.443359 
	C2574.734131,2973.109619 2565.818848,2952.301025 2554.152100,2933.254150 
	C2539.443359,2930.313965 2419.247314,2929.354004 2381.425293,2931.926758 
	C2367.799805,2949.851074 2360.846924,2972.575684 2347.101074,2992.107422 
	C2330.523438,2992.107422 2313.947021,2992.183838 2297.375488,2991.933105 
	C2296.283936,2991.916260 2295.229980,2989.400146 2294.707520,2986.615723 
M2450.520264,2800.513916 
	C2443.603271,2813.420898 2436.416992,2826.192627 2429.845703,2839.273193 
	C2423.415771,2852.072754 2414.690430,2863.889893 2411.091309,2878.329834 
	C2429.544678,2881.116211 2507.260742,2880.963623 2523.839355,2878.123535 
	C2523.049072,2875.614258 2522.649658,2873.054688 2521.500977,2870.892822 
	C2504.948242,2839.737061 2488.332520,2808.614502 2471.574463,2777.569092 
	C2470.528076,2775.630859 2468.179199,2774.395996 2465.851807,2772.310059 
	C2460.784912,2781.591797 2456.328613,2789.754395 2450.520264,2800.513916 
z"/>
<path fill="#EC2129" opacity="1.000000" stroke="none" 
	d="
M1639.371094,3538.922607 
	C1678.144043,3467.498535 1716.250000,3397.393066 1754.768066,3326.529541 
	C1773.387451,3326.529541 1791.303711,3326.470947 1809.218994,3326.575439 
	C1813.130493,3326.598145 1817.038452,3327.202148 1821.785034,3327.610352 
	C1869.081421,3414.053467 1916.342896,3500.412842 1963.522583,3586.816895 
	C1964.394409,3588.413574 1964.295288,3590.540283 1964.646362,3592.404541 
	C1951.031738,3595.563477 1928.517212,3596.004883 1904.161499,3593.490479 
	C1893.432007,3573.918701 1882.284912,3553.584717 1871.032837,3533.059570 
	C1813.851440,3533.059570 1757.339478,3533.059570 1699.807739,3533.059570 
	C1686.526489,3551.624023 1678.682007,3573.817139 1665.500854,3593.862549 
	C1648.039795,3595.767578 1630.394531,3595.151611 1610.994141,3594.276855 
	C1618.569092,3574.252930 1629.713989,3557.774170 1639.371094,3538.922607 
M1806.809692,3411.011230 
	C1800.160278,3398.953369 1793.510864,3386.895752 1786.634521,3374.426758 
	C1776.172363,3386.215820 1756.311523,3421.463379 1730.415527,3473.795410 
	C1729.355591,3475.937744 1729.116821,3478.486084 1728.237183,3481.825684 
	C1731.986694,3482.285156 1734.450195,3482.850830 1736.913086,3482.848877 
	C1770.737183,3482.821045 1804.561279,3482.732178 1838.384766,3482.547119 
	C1839.414062,3482.541504 1840.436768,3481.333008 1842.666748,3479.924561 
	C1832.678711,3457.180176 1819.406616,3435.915527 1806.809692,3411.011230 
z"/>
<path fill="#EC2931" opacity="1.000000" stroke="none" 
	d="
M961.591614,3543.931152 
	C961.592163,3448.780762 961.592163,3355.618652 961.592163,3262.314453 
	C971.038635,3256.858887 980.510925,3259.799316 989.469604,3259.563232 
	C998.607544,3259.322021 1007.999695,3257.883057 1017.629456,3261.087402 
	C1020.043762,3279.835938 1018.379883,3298.407471 1018.683472,3316.906006 
	C1018.989380,3335.541260 1018.750854,3354.185547 1018.750854,3372.825928 
	C1018.750854,3390.800537 1018.750854,3408.775391 1018.750854,3426.750000 
	C1018.750854,3445.390381 1018.750854,3464.031006 1018.750854,3482.671387 
	C1018.750916,3501.207764 1018.750916,3519.744141 1018.750916,3538.131592 
	C1026.810425,3542.597900 1034.272217,3540.849854 1041.338745,3540.865967 
	C1110.574219,3541.025879 1179.810303,3540.927490 1249.046021,3541.016113 
	C1256.199341,3541.025391 1263.575684,3539.823486 1271.090454,3542.958740 
	C1272.855713,3559.776611 1272.647217,3576.144287 1271.261841,3591.906006 
	C1269.962158,3592.928711 1269.472046,3593.395020 1268.906616,3593.736816 
	C1268.359863,3594.067139 1267.736206,3594.494873 1267.145386,3594.496094 
	C1172.623901,3594.707275 1078.102173,3594.889160 983.580444,3595.046387 
	C978.262939,3595.055176 972.940674,3594.936768 967.630615,3594.674805 
	C966.431946,3594.615723 965.275085,3593.708740 962.560425,3592.516357 
	C960.521179,3577.578369 962.041931,3561.696777 961.591614,3543.931152 
z"/>
<path fill="#EC2129" opacity="1.000000" stroke="none" 
	d="
M1924.806885,2942.499756 
	C1926.615845,2959.293457 1926.557251,2974.507324 1925.785034,2990.455322 
	C1922.481567,2991.230469 1920.058960,2992.293701 1917.635254,2992.296143 
	C1837.664795,2992.380859 1757.694214,2992.370117 1677.723633,2992.327148 
	C1675.755859,2992.326172 1673.788330,2991.804443 1670.820068,2991.383789 
	C1670.132935,2988.564453 1668.746338,2985.519287 1668.741943,2982.471680 
	C1668.623291,2899.835205 1668.637085,2817.198730 1668.687134,2734.562012 
	C1668.688721,2732.001709 1669.312012,2729.441895 1669.746094,2726.108887 
	C1678.310303,2722.821533 1686.989380,2724.560303 1695.413940,2724.298584 
	C1704.005615,2724.031494 1712.612061,2724.239746 1720.305664,2724.239746 
	C1726.234619,2730.199951 1724.289429,2736.517090 1724.304810,2742.220703 
	C1724.457764,2799.532959 1724.398438,2856.845703 1724.398804,2914.158447 
	C1724.398804,2921.462158 1724.398804,2928.765869 1724.398804,2935.114746 
	C1730.013428,2941.485352 1736.411743,2939.470703 1742.114136,2939.487549 
	C1796.094116,2939.647461 1850.075073,2939.536865 1904.055298,2939.643799 
	C1910.655151,2939.656738 1917.253418,2940.489258 1924.806885,2942.499756 
z"/>
<path fill="#EC2028" opacity="1.000000" stroke="none" 
	d="
M3039.917480,2880.000000 
	C3040.029541,2828.754150 3040.131348,2779.508301 3040.312744,2730.262695 
	C3040.317139,2729.074463 3041.207764,2727.889160 3042.151855,2725.541992 
	C3049.819824,2723.038818 3058.464600,2724.527588 3066.913818,2724.304199 
	C3075.494141,2724.077148 3084.084961,2724.254150 3091.698486,2724.254150 
	C3097.488037,2730.424561 3095.597412,2736.710693 3095.611816,2742.434326 
	C3095.758789,2801.005371 3095.675293,2859.577148 3095.740234,2918.148682 
	C3095.747314,2924.639648 3096.274170,2931.130127 3096.613525,2938.833984 
	C3110.831055,2940.219727 3124.028564,2939.428955 3137.166504,2939.565186 
	C3150.476807,2939.702881 3163.789551,2939.595459 3177.101318,2939.595459 
	C3189.747559,2939.595459 3202.393555,2939.595459 3215.039795,2939.595459 
	C3228.351562,2939.595459 3241.663330,2939.558105 3254.974854,2939.605957 
	C3268.150879,2939.653564 3281.326416,2939.787354 3295.406250,2939.889893 
	C3297.682861,2949.478027 3296.681152,2958.058105 3296.771973,2966.502197 
	C3296.856689,2974.358643 3296.518311,2982.219482 3296.389404,2988.874023 
	C3294.640625,2990.462402 3294.199951,2990.996826 3293.640137,2991.332275 
	C3293.104004,2991.653564 3292.444092,2991.947510 3291.838135,2991.948730 
	C3211.310547,2992.111084 3130.783203,2992.254150 3050.255615,2992.344482 
	C3047.682617,2992.347412 3045.109131,2991.794434 3041.538086,2991.386230 
	C3038.272705,2972.789062 3040.390137,2954.279541 3040.000244,2935.910645 
	C3039.619141,2917.947998 3039.917480,2899.970703 3039.917480,2880.000000 
z"/>
<path fill="#ED252D" opacity="1.000000" stroke="none" 
	d="
M2813.577637,3567.315430 
	C2813.445557,3577.092041 2813.314209,3584.967773 2813.175781,3593.254150 
	C2803.523926,3596.153320 2794.903809,3594.738037 2786.453125,3594.953857 
	C2777.854004,3595.173828 2769.244873,3595.002441 2760.027100,3595.002441 
	C2759.092041,3590.860352 2757.778564,3587.746582 2757.774902,3584.631348 
	C2757.673096,3501.396484 2757.699463,3418.161377 2757.757812,3334.926514 
	C2757.759277,3332.993408 2758.375977,3331.060791 2758.903809,3327.967773 
	C2776.396484,3325.219727 2793.971436,3326.376221 2810.514893,3327.114746 
	C2811.995605,3328.775635 2812.812988,3329.263916 2812.814697,3329.755371 
	C2813.107666,3408.308350 2813.341797,3486.861816 2813.577637,3567.315430 
z"/>
<path fill="#FDF8F7" opacity="1.000000" stroke="none" 
	d="
M2905.145020,2891.608643 
	C2905.741699,2903.793457 2906.595947,2914.429688 2905.722412,2924.921631 
	C2904.972168,2933.935791 2900.456787,2937.565186 2891.565430,2939.016846 
	C2888.308105,2939.548340 2884.948486,2939.613525 2881.635010,2939.616211 
	C2835.126709,2939.652344 2788.618408,2939.658936 2742.110107,2939.594482 
	C2739.584961,2939.590820 2737.060791,2938.898926 2733.732422,2938.409180 
	C2731.129395,2928.929688 2732.583008,2919.650879 2732.356689,2910.551270 
	C2732.128418,2901.367188 2732.431396,2892.169922 2732.508545,2882.075195 
	C2736.795166,2881.363281 2739.898682,2880.404785 2743.004395,2880.398926 
	C2788.848145,2880.309814 2834.692139,2880.330322 2880.536133,2880.385742 
	C2884.510498,2880.390625 2888.529785,2880.526611 2892.447510,2881.128174 
	C2897.916992,2881.968018 2902.584473,2884.293945 2905.145020,2891.608643 
z"/>
<path fill="#FCF2F2" opacity="1.000000" stroke="none" 
	d="
M2901.088379,2824.167480 
	C2894.609375,2830.228271 2887.897461,2830.767090 2881.260010,2830.779785 
	C2834.033203,2830.870850 2786.806396,2830.819824 2739.579834,2830.698486 
	C2737.756836,2830.693848 2735.936768,2829.510010 2733.226807,2828.565918 
	C2732.896484,2823.450684 2732.292969,2818.283936 2732.284668,2813.116211 
	C2732.266357,2801.927490 2731.806152,2790.698975 2732.843994,2778.694580 
	C2737.670410,2778.066162 2741.477539,2777.147949 2745.286621,2777.139404 
	C2789.189453,2777.041016 2833.093506,2776.895508 2876.994873,2777.156982 
	C2901.253906,2777.301514 2904.738525,2781.066162 2904.303711,2805.114990 
	C2904.197266,2811.014893 2902.881348,2816.893066 2901.088379,2824.167480 
z"/>
<path fill="#FEF9FA" opacity="1.000000" stroke="none" 
	d="
M2050.917969,3388.518555 
	C2052.272949,3384.441650 2053.116455,3381.166992 2054.959473,3380.445557 
	C2057.886963,3379.299072 2061.481689,3379.716797 2064.794189,3379.714844 
	C2108.625000,3379.688232 2152.456299,3379.577393 2196.286377,3379.761963 
	C2218.947266,3379.857422 2222.358154,3383.522461 2222.792480,3406.674805 
	C2222.904541,3412.644775 2223.028809,3418.661621 2222.447998,3424.588135 
	C2221.118652,3438.151855 2217.047607,3442.112305 2203.959961,3443.369385 
	C2201.321533,3443.622559 2198.652588,3443.622314 2195.997559,3443.623291 
	C2151.502686,3443.636475 2107.007812,3443.650879 2062.512939,3443.588867 
	C2059.334717,3443.584473 2056.157715,3442.990723 2051.677979,3442.540039 
	C2050.056396,3424.674561 2051.154785,3407.539795 2050.917969,3388.518555 
z"/>
<path fill="#FDF8F7" opacity="1.000000" stroke="none" 
	d="
M1437.615234,2809.576660 
	C1444.669678,2796.604736 1450.974731,2784.905029 1457.867554,2772.114746 
	C1460.298706,2774.426514 1462.614624,2775.776367 1463.701050,2777.789307 
	C1480.452271,2808.833252 1497.070923,2839.948730 1513.612183,2871.105225 
	C1514.752075,2873.252686 1515.036377,2875.854248 1515.755127,2878.372803 
	C1497.509277,2881.105713 1419.805664,2880.961182 1403.437378,2878.180908 
	C1403.577881,2869.067383 1409.937744,2862.522949 1413.447388,2854.926758 
	C1416.791748,2847.688721 1420.920166,2840.813965 1424.681763,2833.767822 
	C1428.756348,2826.135254 1432.805542,2818.489258 1437.615234,2809.576660 
z"/>
<path fill="#FDF8F7" opacity="1.000000" stroke="none" 
	d="
M2451.196289,2799.215576 
	C2456.328613,2789.754395 2460.784912,2781.591797 2465.851807,2772.310059 
	C2468.179199,2774.395996 2470.528076,2775.630859 2471.574463,2777.569092 
	C2488.332520,2808.614502 2504.948242,2839.737061 2521.500977,2870.892822 
	C2522.649658,2873.054688 2523.049072,2875.614258 2523.839355,2878.123535 
	C2507.260742,2880.963623 2429.544678,2881.116211 2411.091309,2878.329834 
	C2414.690430,2863.889893 2423.415771,2852.072754 2429.845703,2839.273193 
	C2436.416992,2826.192627 2443.603271,2813.420898 2451.196289,2799.215576 
z"/>
<path fill="#FCF2F2" opacity="1.000000" stroke="none" 
	d="
M1807.469482,3412.334961 
	C1819.406616,3435.915527 1832.678711,3457.180176 1842.666748,3479.924561 
	C1840.436768,3481.333008 1839.414062,3482.541504 1838.384766,3482.547119 
	C1804.561279,3482.732178 1770.737183,3482.821045 1736.913086,3482.848877 
	C1734.450195,3482.850830 1731.986694,3482.285156 1728.237183,3481.825684 
	C1729.116821,3478.486084 1729.355591,3475.937744 1730.415527,3473.795410 
	C1756.311523,3421.463379 1776.172363,3386.215820 1786.634521,3374.426758 
	C1793.510864,3386.895752 1800.160278,3398.953369 1807.469482,3412.334961 
z"/>
</svg>